<?xml version="1.0" encoding="utf-8"?>
<!-- Generator: Adobe Illustrator 22.1.0, SVG Export Plug-In . SVG Version: 6.00 Build 0)  -->
<svg version="1.1" id="Calque_1" xmlns="http://www.w3.org/2000/svg" xmlns:xlink="http://www.w3.org/1999/xlink" x="0px" y="0px"
	 viewBox="0 0 235.1 78.4" style="enable-background:new 0 0 235.1 78.4;" xml:space="preserve">
<g>
	<polygon points="130.3,16.5 120.1,16.5 120.1,0.2 115.6,0.2 115.6,20.6 130.3,20.6 	"/>
	<rect x="133.6" y="16.6" width="15.5" height="4"/>
	<rect x="133.6" y="0.2" width="15.5" height="4"/>
	<rect x="133.6" y="8.3" width="14.1" height="4"/>
	<path d="M125.2,49c3.9,0,6.3-1.4,8.4-3.6l-2.9-2.9c-1.6,1.5-3,2.4-5.4,2.4c-3.5,0-5.9-2.9-5.9-6.4v-0.1c0-3.5,2.5-6.4,5.9-6.4
		c2,0,3.6,0.9,5.2,2.3l2.9-3.3c-1.9-1.9-4.2-3.1-8-3.1c-6.3,0-10.6,4.7-10.6,10.5v0.1C114.7,44.3,119.2,49,125.2,49z"/>
	<polygon points="161,35.6 170.9,48.6 174.7,48.6 174.7,28.2 170.3,28.2 170.3,40.8 160.8,28.2 156.6,28.2 156.6,48.6 161,48.6 	"/>
	<polygon points="178.2,32.4 184.4,32.4 184.4,48.6 188.9,48.6 188.9,32.4 195.1,32.4 195.1,28.2 178.2,28.2 	"/>
	<path d="M211.1,41.3c2.6-1,4.4-3,4.4-6.3v-0.1c0-4.2-2.9-6.7-7.7-6.7h-9.3v20.4h4.5v-6.5h3.5l4.4,6.5h5.2L211.1,41.3z M211,35.2
		c0,1.7-1.3,2.9-3.4,2.9H203v-5.9h4.5C209.6,32.3,211,33.3,211,35.2L211,35.2z"/>
	<rect x="137.1" y="44.6" width="15.5" height="4"/>
	<rect x="137.1" y="28.2" width="15.5" height="4"/>
	<rect x="137.1" y="36.3" width="14.1" height="4"/>
	<rect x="219.5" y="44.6" width="15.5" height="4"/>
	<rect x="219.5" y="28.2" width="15.5" height="4"/>
	<rect x="219.5" y="36.3" width="14.1" height="4"/>
	<polygon points="115.6,60.1 115.6,67 120.4,67 120.4,65.9 116.8,65.9 116.8,60.1 	"/>
	<path d="M127,67h1.3l-3-7h-1.1l-3,7h1.2l0.7-1.7h3.3L127,67z M123.5,64.3l1.2-2.8l1.2,2.8H123.5z"/>
	<path d="M138.2,65.1c0-0.9-0.6-1.4-1.4-1.7c0.5-0.3,1-0.7,1-1.5c0-1.1-0.9-1.8-2.3-1.8h-3.1V67h3.2C137.2,67,138.2,66.3,138.2,65.1
		z M133.6,61.2h1.7c0.8,0,1.2,0.3,1.2,0.9c0,0.6-0.5,0.9-1.3,0.9h-1.7V61.2z M133.6,64h1.9c1,0,1.4,0.3,1.4,0.9c0,0.6-0.5,1-1.3,1
		h-2V64z"/>
	<path d="M140.9,65.3h3.3l0.7,1.7h1.3l-3-7H142l-3,7h1.2L140.9,65.3z M142.5,61.5l1.2,2.8h-2.4L142.5,61.5z"/>
	<path d="M149.7,66c-0.9,0-1.5-0.3-2.2-0.9l-0.7,0.9c0.8,0.7,1.8,1.1,2.9,1.1c1.4,0,2.5-0.8,2.5-2.1c0-1.2-0.8-1.7-2.2-2
		c-1.3-0.3-1.6-0.6-1.6-1.1c0-0.5,0.4-0.8,1.1-0.8c0.6,0,1.3,0.2,1.9,0.7l0.7-0.9c-0.7-0.6-1.5-0.9-2.5-0.9c-1.4,0-2.4,0.8-2.4,2
		c0,1.3,0.8,1.7,2.3,2.1c1.3,0.3,1.6,0.6,1.6,1.1C150.9,65.7,150.4,66,149.7,66z"/>
	<polygon points="158.7,65.9 154.8,65.9 154.8,64.1 158.2,64.1 158.2,63 154.8,63 154.8,61.2 158.7,61.2 158.7,60.1 153.5,60.1 
		153.5,67 158.7,67 	"/>
	<path d="M165.6,66c-0.9,0-1.5-0.3-2.2-0.9l-0.7,0.9c0.8,0.7,1.8,1.1,2.9,1.1c1.4,0,2.5-0.8,2.5-2.1c0-1.2-0.8-1.7-2.2-2
		c-1.3-0.3-1.6-0.6-1.6-1.1c0-0.5,0.4-0.8,1.1-0.8c0.6,0,1.3,0.2,1.9,0.7l0.7-0.9c-0.7-0.6-1.5-0.9-2.5-0.9c-1.4,0-2.4,0.8-2.4,2
		c0,1.3,0.8,1.7,2.3,2.1c1.3,0.3,1.6,0.6,1.6,1.1C166.8,65.7,166.3,66,165.6,66z"/>
	<path d="M172.7,67.1c2.1,0,3.6-1.6,3.6-3.6c0-2-1.5-3.6-3.6-3.6s-3.6,1.6-3.6,3.6C169.1,65.5,170.6,67.1,172.7,67.1z M172.7,61.1
		c1.4,0,2.3,1.1,2.3,2.5s-1,2.4-2.3,2.4c-1.4,0-2.3-1.1-2.3-2.5C170.4,62.2,171.3,61.1,172.7,61.1z"/>
	<path d="M182.4,64.1c0,1.3-0.7,1.9-1.7,1.9c-1.1,0-1.7-0.7-1.7-2v-3.9h-1.2v4c0,2,1.1,3,2.9,3c1.8,0,3-1,3-3.1v-3.9h-1.2V64.1z"/>
	<path d="M187.7,66c-0.9,0-1.5-0.3-2.2-0.9l-0.7,0.9c0.8,0.7,1.8,1.1,2.9,1.1c1.4,0,2.5-0.8,2.5-2.1c0-1.2-0.8-1.7-2.2-2
		c-1.3-0.3-1.6-0.6-1.6-1.1c0-0.5,0.4-0.8,1.1-0.8c0.6,0,1.3,0.2,1.9,0.7l0.7-0.9c-0.7-0.6-1.5-0.9-2.5-0.9c-1.4,0-2.4,0.8-2.4,2
		c0,1.3,0.8,1.7,2.3,2.1c1.3,0.3,1.6,0.6,1.6,1.1C188.9,65.7,188.4,66,187.7,66z"/>
	<rect x="191.2" y="63.4" width="2.9" height="1.2"/>
	<polygon points="199,63.4 196.9,60.1 195.6,60.1 195.6,67 196.8,67 196.8,62.1 198.9,65.3 199,65.3 201.1,62 201.1,67 202.4,67 
		202.4,60.1 201.1,60.1 	"/>
	<path d="M206.6,60l-3,7h1.2l0.7-1.7h3.3l0.7,1.7h1.3l-3-7H206.6z M205.9,64.3l1.2-2.8l1.2,2.8H205.9z"/>
	<path d="M217.6,62.3c0-1.4-1-2.2-2.6-2.2h-3.1V67h1.2v-2.4h1.5l1.7,2.4h1.4l-1.9-2.6C216.9,64.1,217.6,63.4,217.6,62.3z
		 M213.1,63.5v-2.3h1.8c0.9,0,1.4,0.4,1.4,1.2c0,0.7-0.6,1.2-1.4,1.2H213.1z"/>
	<rect x="219.1" y="60.1" width="1.2" height="6.9"/>
	<polygon points="227,64.9 223.3,60.1 222.2,60.1 222.2,67 223.4,67 223.4,62.1 227.2,67 228.2,67 228.2,60.1 227,60.1 	"/>
	<polygon points="231.2,65.9 231.2,64.1 234.6,64.1 234.6,63 231.2,63 231.2,61.2 235.1,61.2 235.1,60.1 230,60.1 230,67 235.1,67 
		235.1,65.9 	"/>
	<path d="M118.2,71.4h-2.6v6.9h2.6c2.2,0,3.7-1.5,3.7-3.5C121.8,72.9,120.3,71.4,118.2,71.4z M118.2,77.2h-1.4v-4.7h1.4
		c1.4,0,2.4,1,2.4,2.4C120.6,76.2,119.6,77.2,118.2,77.2z"/>
	<polygon points="124.5,75.4 128,75.4 128,74.3 124.5,74.3 124.5,72.5 128.4,72.5 128.4,71.4 123.3,71.4 123.3,78.3 128.5,78.3 
		128.5,77.2 124.5,77.2 	"/>
	<path d="M137.2,74.7c0.5-0.3,1-0.7,1-1.5c0-1.1-0.9-1.8-2.3-1.8h-3.1v6.9h3.2c1.5,0,2.6-0.7,2.6-1.9
		C138.6,75.5,138.1,75,137.2,74.7z M134.1,72.5h1.7c0.8,0,1.2,0.3,1.2,0.9c0,0.6-0.5,0.9-1.3,0.9h-1.7V72.5z M136.1,77.2h-2v-1.9
		h1.9c1,0,1.4,0.3,1.4,0.9C137.4,76.9,136.9,77.2,136.1,77.2z"/>
	<path d="M143.3,71.3c-2.1,0-3.6,1.6-3.6,3.6c0,2,1.5,3.6,3.6,3.6c2.1,0,3.6-1.6,3.6-3.6C146.9,72.9,145.4,71.3,143.3,71.3z
		 M143.3,77.3c-1.4,0-2.3-1.1-2.3-2.5c0-1.4,1-2.4,2.3-2.4c1.4,0,2.3,1.1,2.3,2.5C145.6,76.2,144.7,77.3,143.3,77.3z"/>
	<path d="M154,73.6c0-1.4-1-2.2-2.6-2.2h-3.1v6.9h1.2v-2.4h1.5l1.7,2.4h1.4l-1.9-2.6C153.3,75.4,154,74.7,154,73.6z M149.6,74.8
		v-2.3h1.8c0.9,0,1.4,0.4,1.4,1.2c0,0.7-0.6,1.2-1.4,1.2H149.6z"/>
	<path d="M158.1,71.4h-2.6v6.9h2.6c2.2,0,3.7-1.5,3.7-3.5C161.7,72.9,160.2,71.4,158.1,71.4z M158.1,77.2h-1.4v-4.7h1.4
		c1.4,0,2.4,1,2.4,2.4C160.5,76.2,159.5,77.2,158.1,77.2z"/>
	<polygon points="164.4,75.4 167.9,75.4 167.9,74.3 164.4,74.3 164.4,72.5 168.3,72.5 168.3,71.4 163.2,71.4 163.2,78.3 168.4,78.3 
		168.4,77.2 164.4,77.2 	"/>
	<path d="M172.2,71.4l-3,7h1.2l0.7-1.7h3.3l0.7,1.7h1.3l-3-7H172.2z M171.6,75.6l1.2-2.8l1.2,2.8H171.6z"/>
	<path d="M181.9,75.4c0,1.3-0.7,1.9-1.7,1.9c-1.1,0-1.7-0.7-1.7-2v-3.9h-1.2v4c0,2,1.1,3,2.9,3c1.8,0,3-1,3-3.1v-3.9h-1.2V75.4z"/>
	<polygon points="190.5,71.4 189.1,71.4 187.4,73.9 185.7,71.4 184.3,71.4 186.7,74.8 184.2,78.3 185.6,78.3 187.4,75.7 189.2,78.3 
		190.6,78.3 188.1,74.8 	"/>
	<path d="M0,78.3h44h55.9V33.2V0H0V78.3z M88,66.4H55.9V45.1H88V66.4z M11.9,11.9H88v21.3H44v33.2H11.9V11.9z"/>
</g>
</svg>
