<?xml version="1.0" encoding="utf-8"?>
<!-- Generator: Adobe Illustrator 22.1.0, SVG Export Plug-In . SVG Version: 6.00 Build 0)  -->
<svg version="1.1" id="Calque_1" xmlns="http://www.w3.org/2000/svg" xmlns:xlink="http://www.w3.org/1999/xlink" x="0px" y="0px"
	 viewBox="0 0 235.1 65.3" style="enable-background:new 0 0 235.1 65.3;" xml:space="preserve">
<g>
	<path d="M0,65.1h19.2h19.2h49.4V38.5V19.3V0.2H0V65.1z M80.3,57.7H45.7V45.9h34.6V57.7z M80.3,38.5h-42v19.2H26.6V26.7h53.7V38.5z
		 M7.4,7.6h72.9v11.7H19.2v38.3H7.4V7.6z"/>
	<polygon points="113,10 114,7.5 115.7,3.4 117.4,7.5 118.4,10 119.6,12.9 122.5,12.9 117,0.1 114.5,0.1 109,12.9 111.9,12.9 	"/>
	<path d="M128.8,10.6c-1.4,0-2.6-0.6-3.8-1.5l-1.6,2c1.5,1.4,3.5,2,5.4,2c2.7,0,4.7-1.4,4.7-3.9v0c0-2.2-1.4-3.1-4-3.8
		c-2.2-0.6-2.7-0.8-2.7-1.7v0c0-0.6,0.6-1.1,1.6-1.1c1.1,0,2.2,0.5,3.3,1.2l1.4-2.1c-1.3-1-2.9-1.6-4.7-1.6c-2.6,0-4.4,1.5-4.4,3.8
		v0c0,2.5,1.6,3.2,4.2,3.9c2.1,0.5,2.6,0.9,2.6,1.6v0C130.6,10.1,130,10.6,128.8,10.6z"/>
	<path d="M101.6,28c-1.4,0-2.6-0.6-3.8-1.5l-1.6,2c1.5,1.4,3.5,2,5.4,2c2.7,0,4.7-1.4,4.7-3.9v0c0-2.2-1.4-3.1-4-3.8
		c-2.2-0.6-2.7-0.8-2.7-1.7v0c0-0.6,0.6-1.1,1.6-1.1s2.2,0.5,3.3,1.2l1.4-2.1c-1.3-1-2.9-1.6-4.7-1.6c-2.6,0-4.4,1.5-4.4,3.8v0
		c0,2.5,1.6,3.2,4.2,3.9c2.1,0.5,2.6,0.9,2.6,1.6v0C103.5,27.5,102.8,28,101.6,28z"/>
	<path d="M121.6,23.9L121.6,23.9c0-3.6-2.8-6.6-6.7-6.6c-3.9,0-6.8,3-6.8,6.6v0c0,3.6,2.8,6.5,6.7,6.5S121.6,27.5,121.6,23.9z
		 M111,23.9L111,23.9c0-2.2,1.6-4,3.8-4c2.2,0,3.8,1.8,3.8,4v0c0,2.2-1.6,3.9-3.8,3.9C112.6,27.9,111,26.1,111,23.9z"/>
	<path d="M134.9,24.7v-7.1h-2.8v7.3c0,2-1,3-2.7,3c-1.7,0-2.7-1.1-2.7-3.1v-7.2h-2.8v7.2c0,3.7,2.1,5.6,5.5,5.6
		C132.7,30.5,134.9,28.6,134.9,24.7z"/>
	<path d="M141.8,19.9c1.1,0,2.2,0.5,3.3,1.2l1.4-2.1c-1.3-1-2.9-1.6-4.7-1.6c-2.6,0-4.4,1.5-4.4,3.8v0c0,2.5,1.6,3.2,4.2,3.9
		c2.1,0.5,2.6,0.9,2.6,1.6v0c0,0.7-0.7,1.2-1.8,1.2c-1.4,0-2.6-0.6-3.8-1.5l-1.6,2c1.5,1.4,3.5,2,5.4,2c2.7,0,4.7-1.4,4.7-3.9v0
		c0-2.2-1.4-3.1-4-3.8c-2.2-0.6-2.7-0.8-2.7-1.7v0C140.1,20.4,140.7,19.9,141.8,19.9z"/>
	<polygon points="103.4,40.4 100.1,35 97.1,35 97.1,47.7 99.8,47.7 99.8,39.4 103.3,44.8 103.4,44.8 107,39.4 107,47.7 109.7,47.7 
		109.7,35 106.7,35 	"/>
	<polygon points="117.1,34.9 111.7,47.7 114.5,47.7 115.7,44.8 116.7,42.4 118.4,38.3 120.1,42.4 121,44.8 122.2,47.7 125.1,47.7 
		119.7,34.9 	"/>
	<path d="M129.9,43.6h2.2l2.7,4.1h3.3l-3.1-4.5c1.6-0.6,2.7-1.9,2.7-3.9v0c0-2.6-1.8-4.2-4.8-4.2h-5.8v12.7h2.8V43.6z M129.9,37.5
		h2.8c1.4,0,2.2,0.6,2.2,1.8v0c0,1.1-0.8,1.8-2.1,1.8h-2.8V37.5z"/>
	<rect x="140.3" y="35" width="2.8" height="12.7"/>
	<polygon points="157.5,35 154.7,35 154.7,42.8 148.8,35 146.2,35 146.2,47.7 149,47.7 149,39.6 155.1,47.7 157.5,47.7 	"/>
	<path d="M102,52.6h-4.9v12.7h4.9c4,0,6.7-2.8,6.7-6.3v0C108.7,55.3,106,52.6,102,52.6z M105.8,59c0,2.2-1.5,3.8-3.8,3.8h-2.2v-7.6
		h2.2C104.3,55.1,105.8,56.7,105.8,59L105.8,59z"/>
	<path d="M137.2,58.4c0.9-0.5,1.7-1.3,1.7-2.7v0c0-2-1.6-3.3-4.2-3.3h-5.9v12.7h6c2.9,0,4.7-1.2,4.7-3.5v0
		C139.6,59.9,138.6,59,137.2,58.4z M131.5,54.8h2.8c1.2,0,1.8,0.5,1.8,1.3v0c0,0.9-0.8,1.3-2,1.3h-2.6V54.8z M136.8,61.3
		c0,0.9-0.7,1.4-2,1.4h-3.3v-2.8h3.2C136.2,59.8,136.8,60.4,136.8,61.3L136.8,61.3z"/>
	<path d="M148,52.2c-3.9,0-6.8,3-6.8,6.6v0c0,3.6,2.8,6.5,6.7,6.5c3.9,0,6.8-3,6.8-6.6v0C154.8,55.1,152,52.2,148,52.2z M151.8,58.8
		c0,2.2-1.6,3.9-3.8,3.9c-2.2,0-3.8-1.8-3.8-4v0c0-2.2,1.6-3.9,3.8-3.9C150.3,54.8,151.8,56.6,151.8,58.8L151.8,58.8z"/>
	<path d="M167.8,56.6L167.8,56.6c0-2.6-1.8-4.2-4.8-4.2h-5.8v12.7h2.8V61h2.2l2.7,4.1h3.3l-3.1-4.5
		C166.7,59.9,167.8,58.7,167.8,56.6z M165,56.8c0,1.1-0.8,1.8-2.1,1.8H160v-3.6h2.8C164.2,54.9,165,55.5,165,56.8L165,56.8z"/>
	<path d="M175.3,52.4h-4.9v12.7h4.9c4,0,6.7-2.8,6.7-6.3v0C182,55.1,179.2,52.4,175.3,52.4z M179.1,58.8c0,2.2-1.5,3.8-3.8,3.8h-2.2
		v-7.6h2.2C177.5,54.9,179.1,56.5,179.1,58.8L179.1,58.8z"/>
	<polygon points="200.9,52.3 195.5,65.1 198.4,65.1 199.5,62.2 200.5,59.8 202.2,55.7 203.9,59.8 204.9,62.2 206,65.1 208.9,65.1 
		203.5,52.3 	"/>
	<path d="M218.5,59.7c0,2-1,3-2.7,3c-1.7,0-2.7-1.1-2.7-3.1v-7.2h-2.8v7.2c0,3.7,2.1,5.6,5.5,5.6c3.4,0,5.6-1.9,5.6-5.7v-7.1h-2.8
		V59.7z"/>
	<polygon points="230.7,58.6 234.9,52.4 231.8,52.4 229.1,56.5 226.4,52.4 223.2,52.4 227.4,58.6 223,65.1 226.2,65.1 229,60.7 
		231.9,65.1 235.1,65.1 	"/>
	<rect x="135.8" y="10.4" width="9.6" height="2.5"/>
	<rect x="135.8" y="0.2" width="9.6" height="2.5"/>
	<rect x="135.8" y="5.2" width="8.7" height="2.5"/>
	<rect x="160.5" y="45.2" width="9.6" height="2.5"/>
	<rect x="160.5" y="35" width="9.6" height="2.5"/>
	<rect x="160.5" y="40" width="8.7" height="2.5"/>
	<rect x="111.2" y="62.8" width="9.6" height="2.5"/>
	<rect x="111.2" y="52.6" width="9.6" height="2.5"/>
	<rect x="111.2" y="57.7" width="8.7" height="2.5"/>
	<rect x="184.5" y="62.6" width="9.6" height="2.5"/>
	<rect x="184.5" y="52.4" width="9.6" height="2.5"/>
	<rect x="184.5" y="57.5" width="8.7" height="2.5"/>
	<path d="M107.8,9.4L107.8,9.4c0-1.7-0.9-2.6-2.4-3.1c0.9-0.5,1.7-1.3,1.7-2.7v0c0-2-1.6-3.3-4.2-3.3h-5.9v2.4h2.7h0.2h2.5
		c1.2,0,1.8,0.5,1.8,1.3v0c0,0.9-0.8,1.3-2,1.3H100h-0.2h-2.7v2.3h2.7h3.2c1.4,0,2.1,0.5,2.1,1.4v0c0,0.9-0.7,1.4-2,1.4H100h-3v2.4
		h6C106,12.8,107.8,11.7,107.8,9.4z"/>
</g>
</svg>
