<svg xmlns="http://www.w3.org/2000/svg" width="27.584" height="27.577" viewBox="0 0 27.584 27.577">
  <path id="Icon_awesome-instagram" data-name="Icon awesome-instagram" d="M13.79,8.956a7.071,7.071,0,1,0,7.071,7.071A7.059,7.059,0,0,0,13.79,8.956Zm0,11.667a4.6,4.6,0,1,1,4.6-4.6,4.605,4.605,0,0,1-4.6,4.6ZM22.8,8.667a1.649,1.649,0,1,1-1.649-1.649A1.645,1.645,0,0,1,22.8,8.667Zm4.683,1.674a8.161,8.161,0,0,0-2.228-5.778,8.215,8.215,0,0,0-5.778-2.228c-2.277-.129-9.1-.129-11.378,0A8.2,8.2,0,0,0,2.319,4.556,8.188,8.188,0,0,0,.092,10.334c-.129,2.277-.129,9.1,0,11.378a8.161,8.161,0,0,0,2.228,5.778A8.225,8.225,0,0,0,8.1,29.718c2.277.129,9.1.129,11.378,0a8.161,8.161,0,0,0,5.778-2.228,8.215,8.215,0,0,0,2.228-5.778c.129-2.277.129-9.1,0-11.372ZM24.54,24.155a4.654,4.654,0,0,1-2.621,2.621c-1.815.72-6.123.554-8.129.554s-6.32.16-8.129-.554a4.654,4.654,0,0,1-2.621-2.621c-.72-1.815-.554-6.123-.554-8.129s-.16-6.32.554-8.129A4.654,4.654,0,0,1,5.661,5.276c1.815-.72,6.123-.554,8.129-.554s6.32-.16,8.129.554A4.654,4.654,0,0,1,24.54,7.9c.72,1.815.554,6.123.554,8.129S25.26,22.346,24.54,24.155Z" transform="translate(0.005 -2.238)"/>
</svg>
