<svg xmlns="http://www.w3.org/2000/svg" width="45.179" height="35.14" viewBox="0 0 45.179 35.14">
  <path id="Icon_awesome-cc-mastercard" data-name="Icon awesome-cc-mastercard" d="M37.877,31.914A.879.879,0,1,1,37,31,.877.877,0,0,1,37.877,31.914ZM13.5,31a.92.92,0,1,0,.855.918A.867.867,0,0,0,13.5,31Zm9.216-.024a.727.727,0,0,0-.745.682h1.5A.721.721,0,0,0,22.715,30.973ZM31.171,31a.919.919,0,1,0,.878.918A.867.867,0,0,0,31.171,31Zm8.306,2.047c0,.024.024.039.024.086,0,.024-.024.039-.024.086a.275.275,0,0,0-.039.063.1.1,0,0,1-.086.039c-.024.024-.039.024-.086.024a.155.155,0,0,1-.086-.024c-.024,0-.039-.024-.063-.039s-.039-.039-.039-.063a.143.143,0,0,1-.024-.086c0-.039,0-.063.024-.086a.148.148,0,0,1,.039-.086.275.275,0,0,1,.063-.039.143.143,0,0,1,.086-.024c.039,0,.063,0,.086.024.039.024.063.024.086.039S39.454,33,39.477,33.044Zm-.173.11c.039,0,.039-.024.063-.024a.1.1,0,0,0,0-.125c-.024,0-.039-.024-.086-.024h-.125v.275h.063v-.11h.024l.086.11h.063l-.086-.1ZM45.179,6.085v27.61a3.766,3.766,0,0,1-3.765,3.765H3.765A3.766,3.766,0,0,1,0,33.695V6.085A3.766,3.766,0,0,1,3.765,2.32h37.65A3.766,3.766,0,0,1,45.179,6.085ZM5.02,17.035a10.858,10.858,0,0,0,16.864,9.052,11.7,11.7,0,0,1,0-18.08A10.858,10.858,0,0,0,5.02,17.035Zm17.57,8.534a10.86,10.86,0,0,0,0-17.06A10.86,10.86,0,0,0,22.59,25.569ZM11.428,31.554A1.1,1.1,0,0,0,10.275,30.4a1.121,1.121,0,0,0-1,.51,1.04,1.04,0,0,0-.957-.51,1,1,0,0,0-.831.424v-.345H6.84v2.879h.643c0-1.482-.2-2.369.706-2.369.8,0,.643.8.643,2.369h.62c0-1.435-.2-2.369.706-2.369.8,0,.643.784.643,2.369h.643v-1.8Zm3.522-1.075h-.62v.345a1.13,1.13,0,0,0-.918-.424,1.516,1.516,0,0,0,0,3.028A1.088,1.088,0,0,0,14.33,33v.361h.62Zm3.177,2.008c0-1.177-1.8-.643-1.8-1.192,0-.447.933-.376,1.451-.086l.259-.51c-.737-.478-2.369-.471-2.369.643s1.8.651,1.8,1.177c0,.494-1.059.455-1.624.063l-.275.494C16.448,33.671,18.127,33.546,18.127,32.487Zm2.777.729-.173-.533c-.3.165-.957.345-.957-.322v-1.3H20.8v-.58H19.774V29.6h-.643v.878h-.6v.573h.6v1.31c0,1.38,1.357,1.129,1.773.855Zm1.043-1.051H24.1c0-1.271-.58-1.773-1.365-1.773a1.412,1.412,0,0,0-1.428,1.514,1.565,1.565,0,0,0,2.651,1.114l-.3-.471c-.612.5-1.537.455-1.718-.384Zm4.636-1.686a.92.92,0,0,0-1.192.345v-.345h-.643v2.879h.643V31.734a.654.654,0,0,1,1-.659l.188-.6Zm.831,1.435c0-.894.91-1.184,1.624-.659l.3-.51a1.552,1.552,0,1,0,0,2.353l-.3-.51C28.316,33.1,27.414,32.793,27.414,31.914Zm5.232-1.435H32v.345A1.426,1.426,0,1,0,32,33v.361h.643V30.479Zm2.643,0a.943.943,0,0,0-1.192.345v-.345h-.62v2.879h.62V31.734a.658.658,0,0,1,1-.659l.188-.6ZM38.45,29.31h-.62v1.514a1.426,1.426,0,1,0,0,2.181v.361h.62Zm.6-5.891v.361h.063V23.42h.149v-.063H38.9v.063h.149Zm.518,9.71A.239.239,0,0,0,39.54,33c-.024-.024-.039-.063-.063-.086s-.063-.039-.086-.063c-.039,0-.086-.024-.125-.024a.833.833,0,0,1-.11.024.409.409,0,0,0-.086.063.123.123,0,0,0-.063.086.239.239,0,0,0-.024.125.228.228,0,0,0,.024.11.123.123,0,0,0,.063.086.272.272,0,0,0,.086.063.213.213,0,0,0,.11.024.239.239,0,0,0,.125-.024c.024-.024.063-.039.086-.063s.039-.063.063-.086A.228.228,0,0,0,39.563,33.13Zm.251-9.781H39.7l-.125.275-.125-.275h-.11v.424h.063v-.322l.125.275h.086l.11-.275v.322h.086Zm.345-6.314A10.858,10.858,0,0,0,23.3,8a11.7,11.7,0,0,1,0,18.08A10.858,10.858,0,0,0,40.16,17.035Z" transform="translate(0 -2.32)"/>
</svg>
