<svg id="Groupe_3583" data-name="Groupe 3583" xmlns="http://www.w3.org/2000/svg" width="82.346" height="20.112" viewBox="0 0 82.346 20.112">
  <path id="XMLID_15_" d="M134.835,28.372c-.243,1.642-1.493,1.642-2.705,1.642h-.69l.485-3.06a.379.379,0,0,1,.373-.317h.317c.821,0,1.6,0,2,.466A1.493,1.493,0,0,1,134.835,28.372Zm-.522-4.272h-4.552a.641.641,0,0,0-.634.541L127.279,36.32a.378.378,0,0,0,.373.429h2.183a.641.641,0,0,0,.634-.541l.5-3.153a.637.637,0,0,1,.616-.541h1.437c3,0,4.739-1.455,5.187-4.328a3.581,3.581,0,0,0-.578-2.948A4.372,4.372,0,0,0,134.313,24.1Z" transform="translate(-103.521 -19.604)"/>
  <path id="XMLID_12_" d="M190.025,50.04a2.426,2.426,0,0,1-2.463,2.09,1.857,1.857,0,0,1-1.474-.6,1.832,1.832,0,0,1-.336-1.53,2.453,2.453,0,0,1,2.444-2.108,1.843,1.843,0,0,1,1.455.6A1.919,1.919,0,0,1,190.025,50.04Zm3.041-4.235h-2.183a.366.366,0,0,0-.373.317l-.093.616-.149-.224a3.087,3.087,0,0,0-2.575-.914,5.014,5.014,0,0,0-4.869,4.384,4.152,4.152,0,0,0,.821,3.358,3.421,3.421,0,0,0,2.743,1.1,4.189,4.189,0,0,0,3.022-1.25l-.093.6a.394.394,0,0,0,.373.448h1.959a.641.641,0,0,0,.634-.541l1.175-7.463A.4.4,0,0,0,193.067,45.805Z" transform="translate(-148.655 -37.092)"/>
  <path id="XMLID_11_" d="M255.925,46.7h-2.183a.646.646,0,0,0-.522.28L250.2,51.42l-1.287-4.272a.644.644,0,0,0-.616-.448h-2.146a.375.375,0,0,0-.354.5l2.407,7.09L245.924,57.5a.375.375,0,0,0,.317.6h2.183a.6.6,0,0,0,.522-.28L256.242,47.3A.38.38,0,0,0,255.925,46.7Z" transform="translate(-199.909 -37.987)"/>
  <path id="XMLID_8_" d="M309.017,28.372c-.243,1.642-1.493,1.642-2.705,1.642h-.69l.485-3.06a.379.379,0,0,1,.373-.317h.317c.821,0,1.6,0,2,.466A1.493,1.493,0,0,1,309.017,28.372Zm-.522-4.272h-4.552a.609.609,0,0,0-.616.541L301.479,36.32a.378.378,0,0,0,.373.429h2.332a.412.412,0,0,0,.429-.373l.522-3.3a.637.637,0,0,1,.616-.541h1.437c3,0,4.739-1.455,5.187-4.328a3.58,3.58,0,0,0-.578-2.948A4.179,4.179,0,0,0,308.494,24.1Z" transform="translate(-245.221 -19.604)"/>
  <path id="XMLID_5_" d="M364.125,50.04a2.426,2.426,0,0,1-2.463,2.09,1.857,1.857,0,0,1-1.474-.6,1.832,1.832,0,0,1-.336-1.53,2.451,2.451,0,0,1,2.444-2.09,1.734,1.734,0,0,1,1.828,2.127Zm3.041-4.235h-2.183a.366.366,0,0,0-.373.317l-.093.616-.149-.224a3.087,3.087,0,0,0-2.575-.914,5.014,5.014,0,0,0-4.869,4.384,4.152,4.152,0,0,0,.821,3.358,3.421,3.421,0,0,0,2.743,1.1,4.189,4.189,0,0,0,3.022-1.25l-.093.6a.394.394,0,0,0,.373.448h1.959a.609.609,0,0,0,.616-.541l1.175-7.463A.368.368,0,0,0,367.167,45.805Z" transform="translate(-290.273 -37.092)"/>
  <path id="XMLID_4_" d="M417.745,24.336l-1.866,11.9a.378.378,0,0,0,.373.429h1.884a.641.641,0,0,0,.634-.541l1.847-11.679a.394.394,0,0,0-.373-.448h-2.108A.4.4,0,0,0,417.745,24.336Z" transform="translate(-338.277 -19.523)"/>
  <path id="XMLID_3_" d="M33.394,27.4c-.019.112-.037.243-.056.373-.84,4.216-3.657,5.672-7.258,5.672H24.252a.884.884,0,0,0-.877.746l-.933,5.952-.261,1.679a.471.471,0,0,0,.466.541h3.228a.766.766,0,0,0,.765-.653l.037-.168.616-3.881.037-.205A.78.78,0,0,1,28.1,36.8h.485c3.153,0,5.616-1.287,6.343-4.981a4.245,4.245,0,0,0-.653-3.75A2.954,2.954,0,0,0,33.394,27.4Z" transform="translate(-18.031 -22.288)" fill="#707070"/>
  <path id="XMLID_2_" d="M37.761,24.28a2.982,2.982,0,0,0-.392-.093,3.163,3.163,0,0,0-.41-.075A10.909,10.909,0,0,0,35.335,24H30.447a.683.683,0,0,0-.336.075.769.769,0,0,0-.429.578l-1.045,6.6-.037.187a.9.9,0,0,1,.877-.746h1.828c3.6,0,6.418-1.455,7.239-5.69.019-.131.037-.243.056-.373a3.624,3.624,0,0,0-.672-.28A.663.663,0,0,0,37.761,24.28Z" transform="translate(-23.257 -19.523)"/>
  <path id="XMLID_1_" d="M6.366,5.131A.769.769,0,0,1,6.8,4.552a.732.732,0,0,1,.336-.075h4.888a11.091,11.091,0,0,1,1.623.112c.149.019.28.056.41.075.131.037.261.056.392.093.056.019.131.037.187.056a3.624,3.624,0,0,1,.672.28,3.985,3.985,0,0,0-.84-3.582C13.531.448,11.851,0,9.706,0H3.456a.87.87,0,0,0-.877.746L-.033,17.258a.536.536,0,0,0,.522.616H4.351l.97-6.138Z" transform="translate(0.041 0)"/>
</svg>
