<svg xmlns="http://www.w3.org/2000/svg" width="31.506" height="25.589" viewBox="0 0 31.506 25.589">
  <path id="Icon_awesome-twitter" data-name="Icon awesome-twitter" d="M28.268,9.758c.02.28.02.56.02.84,0,8.536-6.5,18.372-18.372,18.372A18.248,18.248,0,0,1,0,26.071a13.358,13.358,0,0,0,1.559.08,12.932,12.932,0,0,0,8.017-2.759,6.469,6.469,0,0,1-6.037-4.478,8.143,8.143,0,0,0,1.22.1,6.829,6.829,0,0,0,1.7-.22,6.458,6.458,0,0,1-5.178-6.337v-.08A6.5,6.5,0,0,0,4.2,13.2a6.467,6.467,0,0,1-2-8.636,18.354,18.354,0,0,0,13.314,6.757,7.289,7.289,0,0,1-.16-1.479A6.463,6.463,0,0,1,26.529,5.42a12.713,12.713,0,0,0,4.1-1.559,6.44,6.44,0,0,1-2.839,3.558,12.945,12.945,0,0,0,3.718-1,13.881,13.881,0,0,1-3.239,3.339Z" transform="translate(0 -3.381)"/>
</svg>
