<svg id="Input" xmlns="http://www.w3.org/2000/svg" width="56.453" height="17.328" viewBox="0 0 56.453 17.328">
  <g id="Groupe_323" data-name="Groupe 323" transform="translate(0 0)">
    <path id="Tracé_229" data-name="Tracé 229" d="M61.9,17.681,64.761.9h4.565L66.465,17.681Z" transform="translate(-42 -0.611)"/>
    <path id="Tracé_230" data-name="Tracé 230" d="M98.727.707A11.383,11.383,0,0,0,94.645,0c-4.533,0-7.716,2.283-7.716,5.53-.032,2.411,2.283,3.761,4.019,4.565,1.768.836,2.379,1.35,2.379,2.09,0,1.125-1.415,1.64-2.733,1.64a9.833,9.833,0,0,1-4.308-.868l-.643-.289L85,16.428a14.446,14.446,0,0,0,5.112.9c4.822,0,7.941-2.25,7.973-5.722.032-1.9-1.189-3.376-3.826-4.565-1.607-.772-2.572-1.286-2.572-2.09,0-.707.836-1.447,2.6-1.447a7.917,7.917,0,0,1,3.408.643l.418.193L98.727.707" transform="translate(-57.674)"/>
    <path id="Tracé_231" data-name="Tracé 231" d="M137.331,1h-3.536a2.291,2.291,0,0,0-2.411,1.382L124.6,17.749h4.79s.772-2.057.964-2.508h5.851c.129.579.547,2.508.547,2.508H141L137.331,1M131.7,11.8c.386-.964,1.832-4.694,1.832-4.694-.032.032.386-.964.611-1.607l.321,1.447s.868,4.019,1.061,4.854Z" transform="translate(-84.543 -0.679)"/>
    <path id="Tracé_232" data-name="Tracé 232" d="M26.184.9l-4.5,11.445L21.2,10.03A12.974,12.974,0,0,0,14.9,2.99l4.083,14.692h4.854L31.038.9H26.184" transform="translate(-10.11 -0.611)"/>
    <path id="Tracé_233" data-name="Tracé 233" d="M7.426.9H.064L0,1.254C5.755,2.636,9.548,6.012,11.123,10.03L9.516,2.315A1.934,1.934,0,0,0,7.426.9" transform="translate(0 -0.611)" fill="#707070"/>
  </g>
</svg>
